<svg width="568.25px" height="119.6199951171875px" xmlns="http://www.w3.org/2000/svg" viewBox="-34.125 15.19000244140625 568.25 119.6199951171875" style="background: rgba(89, 104, 134, 0);" preserveAspectRatio="xMidYMid"><defs><filter id="editing-hover" x="-100%" y="-100%" width="300%" height="300%"><feFlood flood-color="#000000" result="flood"></feFlood><feComposite operator="in" in2="SourceAlpha" in="flood" result="shadow"></feComposite><feOffset dx="1.4" dy="-1.9" in="SourceGraphic" result="offset-1"></feOffset><feOffset dx="-1.4" dy="1.9" in="shadow" result="offset-2"></feOffset><feMerge><feMergeNode in="offset-2"></feMergeNode><feMergeNode in="offset-1"></feMergeNode></feMerge></filter></defs><g filter="url(#editing-hover)"><g transform="translate(47.7950005531311, 103.7400016784668)"><path d="M8.77 0.13L8.77 0.13L8.77 0.13Q2.94 0.13 2.94-1.15L2.94-1.15L2.94-42.62L2.94-42.62Q2.94-44.80 4.93-44.80L4.93-44.80L16.19-44.80L16.19-44.80Q25.66-44.80 29.86-40.90L29.86-40.90L29.86-40.90Q34.05-36.99 34.05-29.57L34.05-29.57L34.05-29.57Q34.05-23.42 30.08-18.30L30.08-18.30L30.08-18.30Q28.10-15.74 24.26-14.21L24.26-14.21L24.26-14.21Q20.42-12.67 15.30-12.67L15.30-12.67L15.30-1.22L15.30-1.22Q15.30-0.45 12.90-0.16L12.90-0.16L12.90-0.16Q10.50 0.13 8.77 0.13ZM16.64-33.66L15.30-33.66L15.30-23.55L16.13-23.55L16.13-23.55Q18.37-23.55 19.90-24.96L19.90-24.96L19.90-24.96Q21.44-26.37 21.44-28.93L21.44-28.93L21.44-28.93Q21.44-31.49 20.38-32.58L20.38-32.58L20.38-32.58Q19.33-33.66 16.64-33.66L16.64-33.66ZM40.54-3.78L40.54-3.78L40.54-3.78Q36.54-8.19 36.54-16L36.54-16L36.54-16Q36.54-23.81 40.54-28.22L40.54-28.22L40.54-28.22Q44.54-32.64 51.33-32.64L51.33-32.64L51.33-32.64Q58.11-32.64 62.08-28.22L62.08-28.22L62.08-28.22Q66.05-23.81 66.05-16L66.05-16L66.05-16Q66.05-8.19 62.08-3.78L62.08-3.78L62.08-3.78Q58.11 0.64 51.33 0.64L51.33 0.64L51.33 0.64Q44.54 0.64 40.54-3.78ZM51.36-21.95L51.36-21.95L51.36-21.95Q47.74-21.95 47.74-16.06L47.74-16.06L47.74-16.06Q47.74-10.18 51.36-10.18L51.36-10.18L51.36-10.18Q54.98-10.18 54.98-16.06L54.98-16.06L54.98-16.06Q54.98-21.95 51.36-21.95ZM99.58-20.86L99.58-0.32L99.58-0.32Q99.58 0.13 94.11 0.13L94.11 0.13L94.11 0.13Q88.64 0.13 88.64-0.45L88.64-0.45L88.64-19.07L88.64-19.07Q88.64-22.27 86.53-22.27L86.53-22.27L86.53-22.27Q85.44-22.27 83.65-20.86L83.65-20.86L83.65-0.38L83.65-0.38Q83.65 0.26 78.18 0.26L78.18 0.26L78.18 0.26Q72.70 0.26 72.70-0.45L72.70-0.45L72.70-21.38L71.10-21.38L71.10-21.38Q68.99-21.38 68.99-25.79L68.99-25.79L68.99-25.79Q68.99-27.78 69.76-29.82L69.76-29.82L69.76-29.82Q70.78-32.64 73.09-32.64L73.09-32.64L73.09-32.64Q75.39-32.64 77.54-31.42L77.54-31.42L77.54-31.42Q79.68-30.21 80.13-29.12L80.13-29.12L80.13-29.12Q84.10-32.64 88.93-32.64L88.93-32.64L88.93-32.64Q93.76-32.64 96.70-29.63L96.70-29.63L96.70-29.63Q100.16-32.64 105.02-32.64L105.02-32.64L105.02-32.64Q115.58-32.64 115.58-19.78L115.58-19.78L115.58-0.32L115.58-0.32Q115.58 0.13 110.11 0.13L110.11 0.13L110.11 0.13Q104.64 0.13 104.64-0.45L104.64-0.45L104.64-19.07L104.64-19.07Q104.64-22.27 102.53-22.27L102.53-22.27L102.53-22.27Q101.38-22.27 99.58-20.86L99.58-20.86ZM123.81-3.78L123.81-3.78L123.81-3.78Q119.81-8.19 119.81-16L119.81-16L119.81-16Q119.81-23.81 123.81-28.22L123.81-28.22L123.81-28.22Q127.81-32.64 134.59-32.64L134.59-32.64L134.59-32.64Q141.38-32.64 145.34-28.22L145.34-28.22L145.34-28.22Q149.31-23.81 149.31-16L149.31-16L149.31-16Q149.31-8.19 145.34-3.78L145.34-3.78L145.34-3.78Q141.38 0.64 134.59 0.64L134.59 0.64L134.59 0.64Q127.81 0.64 123.81-3.78ZM134.62-21.95L134.62-21.95L134.62-21.95Q131.01-21.95 131.01-16.06L131.01-16.06L131.01-16.06Q131.01-10.18 134.62-10.18L134.62-10.18L134.62-10.18Q138.24-10.18 138.24-16.06L138.24-16.06L138.24-16.06Q138.24-21.95 134.62-21.95ZM170.05-32.26L170.05-44.42L170.05-44.42Q170.05-45.38 175.10-45.38L175.10-45.38L175.10-45.38Q176.83-45.38 179.10-45.15L179.10-45.15L179.10-45.15Q181.38-44.93 181.38-44.54L181.38-44.54L181.38-10.82L183.62-10.82L183.62-10.82Q185.22-10.82 185.73-7.94L185.73-7.94L185.73-7.94Q185.86-7.10 185.86-5.66L185.86-5.66L185.86-5.66Q185.86-4.22 184.96-2.18L184.96-2.18L184.96-2.18Q183.68 0.64 180.86 0.64L180.86 0.64L180.86 0.64Q178.75 0.64 177.12-0.19L177.12-0.19L177.12-0.19Q175.49-1.02 174.91-1.92L174.91-1.92L174.34-2.75L174.34-2.75Q170.82 0.64 165.50 0.64L165.50 0.64L165.50 0.64Q160.19 0.64 156.42-3.78L156.42-3.78L156.42-3.78Q152.64-8.19 152.64-16.10L152.64-16.10L152.64-16.10Q152.64-24 156.61-28.32L156.61-28.32L156.61-28.32Q160.58-32.64 166.53-32.64L166.53-32.64L166.53-32.64Q168.26-32.64 170.05-32.26L170.05-32.26ZM167.94-22.40L167.94-22.40L167.94-22.40Q164.35-22.40 164.35-15.94L164.35-15.94L164.35-15.94Q164.35-12.67 165.38-11.23L165.38-11.23L165.38-11.23Q166.40-9.79 167.65-9.79L167.65-9.79L167.65-9.79Q168.90-9.79 170.05-10.88L170.05-10.88L170.05-21.76L170.05-21.76Q168.96-22.40 167.94-22.40ZM192.80-3.78L192.80-3.78L192.80-3.78Q188.80-8.19 188.80-16L188.80-16L188.80-16Q188.80-23.81 192.80-28.22L192.80-28.22L192.80-28.22Q196.80-32.64 203.58-32.64L203.58-32.64L203.58-32.64Q210.37-32.64 214.34-28.22L214.34-28.22L214.34-28.22Q218.30-23.81 218.30-16L218.30-16L218.30-16Q218.30-8.19 214.34-3.78L214.34-3.78L214.34-3.78Q210.37 0.64 203.58 0.64L203.58 0.64L203.58 0.64Q196.80 0.64 192.80-3.78ZM203.62-21.95L203.62-21.95L203.62-21.95Q200-21.95 200-16.06L200-16.06L200-16.06Q200-10.18 203.62-10.18L203.62-10.18L203.62-10.18Q207.23-10.18 207.23-16.06L207.23-16.06L207.23-16.06Q207.23-21.95 203.62-21.95ZM236.86-17.92L236.86-0.06L236.86-0.06Q236.86 0.38 231.04 0.38L231.04 0.38L231.04 0.38Q225.22 0.26 225.22-0.13L225.22-0.13L225.22-21.38L223.49-21.38L223.49-21.38Q222.46-21.38 221.86-22.62L221.86-22.62L221.86-22.62Q221.25-23.87 221.25-25.73L221.25-25.73L221.25-25.73Q221.25-32.64 225.34-32.64L225.34-32.64L225.34-32.64Q228.22-32.64 230.14-30.88L230.14-30.88L230.14-30.88Q232.06-29.12 232.06-26.88L232.06-26.88L232.06-26.88Q233.41-29.50 235.68-31.07L235.68-31.07L235.68-31.07Q237.95-32.64 240.32-32.64L240.32-32.64L240.32-32.64Q244.03-32.64 244.80-30.72L244.80-30.72L244.80-30.72Q244.99-30.21 244.99-29.22L244.99-29.22L244.99-29.22Q244.99-28.22 244.38-25.66L244.38-25.66L244.38-25.66Q243.78-23.10 243.14-21.95L243.14-21.95L243.14-21.95Q242.50-20.80 242.37-20.80L242.37-20.80L242.37-20.80Q242.24-20.80 241.18-21.28L241.18-21.28L241.18-21.28Q240.13-21.76 239.30-21.76L239.30-21.76L239.30-21.76Q236.86-21.76 236.86-17.92L236.86-17.92ZM250.98-3.78L250.98-3.78L250.98-3.78Q246.98-8.19 246.98-16L246.98-16L246.98-16Q246.98-23.81 250.98-28.22L250.98-28.22L250.98-28.22Q254.98-32.64 261.76-32.64L261.76-32.64L261.76-32.64Q268.54-32.64 272.51-28.22L272.51-28.22L272.51-28.22Q276.48-23.81 276.48-16L276.48-16L276.48-16Q276.48-8.19 272.51-3.78L272.51-3.78L272.51-3.78Q268.54 0.64 261.76 0.64L261.76 0.64L261.76 0.64Q254.98 0.64 250.98-3.78ZM261.79-21.95L261.79-21.95L261.79-21.95Q258.18-21.95 258.18-16.06L258.18-16.06L258.18-16.06Q258.18-10.18 261.79-10.18L261.79-10.18L261.79-10.18Q265.41-10.18 265.41-16.06L265.41-16.06L265.41-16.06Q265.41-21.95 261.79-21.95ZM323.46 0.13L323.46 0.13L323.46 0.13Q317.89 0.13 317.44-1.66L317.44-1.66L315.33-9.92L305.15-9.92L303.30-1.98L303.30-1.98Q302.91 0 297.15 0L297.15 0L297.15 0Q294.08 0 292.61-0.35L292.61-0.35L292.61-0.35Q291.14-0.70 291.14-0.90L291.14-0.90L302.46-44.22L302.46-44.22Q302.46-44.74 311.23-44.74L311.23-44.74L311.23-44.74Q320-44.74 320-44.22L320-44.22L331.07-0.83L331.07-0.83Q331.07-0.38 328.13-0.13L328.13-0.13L328.13-0.13Q325.18 0.13 323.46 0.13ZM310.21-31.30L306.75-18.05L313.47-18.05L310.59-31.30L310.21-31.30ZM348.74 0L348.74 11.65L348.74 11.65Q348.74 12.10 343.26 12.10L343.26 12.10L343.26 12.10Q337.79 12.10 337.79 11.65L337.79 11.65L337.79-21.31L335.62-21.31L335.62-21.31Q334.08-21.31 333.50-24.13L333.50-24.13L333.50-24.13Q333.31-25.02 333.31-26.43L333.31-26.43L333.31-26.43Q333.31-27.84 334.21-29.76L334.21-29.76L334.21-29.76Q335.49-32.58 338.30-32.58L338.30-32.58L338.30-32.58Q340.16-32.58 341.73-31.71L341.73-31.71L341.73-31.71Q343.30-30.85 343.90-30.11L343.90-30.11L343.90-30.11Q344.51-29.38 344.51-29.25L344.51-29.25L344.51-29.25Q348.80-32.58 353.79-32.58L353.79-32.58L353.79-32.58Q358.78-32.58 362.37-28.70L362.37-28.70L362.37-28.70Q365.95-24.83 365.95-16.74L365.95-16.74L365.95-16.74Q365.95-8.64 362.37-4.19L362.37-4.19L362.37-4.19Q358.78 0.26 353.28 0.26L353.28 0.26L353.28 0.26Q350.78 0.26 348.74 0L348.74 0ZM351.36-21.38L351.36-21.38L351.36-21.38Q350.27-21.38 349.25-20.67L349.25-20.67L349.25-9.34L349.25-9.34Q350.34-9.22 351.01-9.22L351.01-9.22L351.01-9.22Q351.68-9.22 352.06-9.22L352.06-9.22L352.06-9.22Q354.69-9.47 354.69-15.94L354.69-15.94L354.69-15.94Q354.69-21.38 351.36-21.38ZM384.26 0L384.26 11.65L384.26 11.65Q384.26 12.10 378.78 12.10L378.78 12.10L378.78 12.10Q373.31 12.10 373.31 11.65L373.31 11.65L373.31-21.31L371.14-21.31L371.14-21.31Q369.60-21.31 369.02-24.13L369.02-24.13L369.02-24.13Q368.83-25.02 368.83-26.43L368.83-26.43L368.83-26.43Q368.83-27.84 369.73-29.76L369.73-29.76L369.73-29.76Q371.01-32.58 373.82-32.58L373.82-32.58L373.82-32.58Q375.68-32.58 377.25-31.71L377.25-31.71L377.25-31.71Q378.82-30.85 379.42-30.11L379.42-30.11L379.42-30.11Q380.03-29.38 380.03-29.25L380.03-29.25L380.03-29.25Q384.32-32.58 389.31-32.58L389.31-32.58L389.31-32.58Q394.30-32.58 397.89-28.70L397.89-28.70L397.89-28.70Q401.47-24.83 401.47-16.74L401.47-16.74L401.47-16.74Q401.47-8.64 397.89-4.19L397.89-4.19L397.89-4.19Q394.30 0.26 388.80 0.26L388.80 0.26L388.80 0.26Q386.30 0.26 384.26 0L384.26 0ZM386.88-21.38L386.88-21.38L386.88-21.38Q385.79-21.38 384.77-20.67L384.77-20.67L384.77-9.34L384.77-9.34Q385.86-9.22 386.53-9.22L386.53-9.22L386.53-9.22Q387.20-9.22 387.58-9.22L387.58-9.22L387.58-9.22Q390.21-9.47 390.21-15.94L390.21-15.94L390.21-15.94Q390.21-21.38 386.88-21.38Z" fill="#ffffff"></path></g></g><style>text {
  font-size: 64px;
  font-family: Arial Black;
  dominant-baseline: central;
  text-anchor: middle;
}</style></svg>